<svg xmlns="http://www.w3.org/2000/svg" width="2868" height="698" viewBox="0 0 2868 698" font-family="ui-sans-serif,system-ui,sans-serif">
<rect width="2868" height="698" fill="#fbfaf8"/>
<text x="40" y="26" font-size="15" font-weight="600" fill="#3d3a34">capture_20260831_031153_photo &#183; photo tier</text>
<text x="40" y="44" font-size="11" fill="#8a8377">Rooms drawn at estimated size. Shaded band is the confidence interval. Layout is arbitrary: no room placement has been solved.</text>
<rect x="40.0" y="70.0" width="326.5" height="237.1" fill="#e8642e" fill-opacity="0.10" stroke="#e8642e" stroke-opacity="0.25" stroke-dasharray="4 3"/>
<rect x="40.0" y="70.0" width="163.2" height="167.7" fill="#ffffff" fill-opacity="0.7" stroke="#5c564a" stroke-width="1.6"/>
<text x="40.0" y="253.7" font-size="12" fill="#3d3a34">Living room</text>
<text x="40.0" y="267.7" font-size="10" fill="#8a8377">3.99 &#215; 3.89 m</text>
<rect x="391.7" y="70.0" width="290.6" height="207.8" fill="#e8642e" fill-opacity="0.10" stroke="#e8642e" stroke-opacity="0.25" stroke-dasharray="4 3"/>
<rect x="391.7" y="70.0" width="145.3" height="159.9" fill="#ffffff" fill-opacity="0.7" stroke="#5c564a" stroke-width="1.6"/>
<text x="391.7" y="245.9" font-size="12" fill="#3d3a34">Hall</text>
<text x="391.7" y="259.9" font-size="10" fill="#8a8377">3.81 &#215; 3.46 m</text>
<rect x="707.5" y="70.0" width="390.0" height="548.7" fill="#e8642e" fill-opacity="0.10" stroke="#e8642e" stroke-opacity="0.25" stroke-dasharray="4 3"/>
<rect x="707.5" y="70.0" width="195.0" height="340.8" fill="#ffffff" fill-opacity="0.7" stroke="#5c564a" stroke-width="1.6"/>
<text x="707.5" y="426.8" font-size="12" fill="#3d3a34">Bed room 1</text>
<text x="707.5" y="440.8" font-size="10" fill="#8a8377">8.11 &#215; 4.64 m</text>
<rect x="1122.7" y="70.0" width="478.6" height="309.9" fill="#e8642e" fill-opacity="0.10" stroke="#e8642e" stroke-opacity="0.25" stroke-dasharray="4 3"/>
<rect x="1122.7" y="70.0" width="239.3" height="238.4" fill="#ffffff" fill-opacity="0.7" stroke="#5c564a" stroke-width="1.6"/>
<text x="1122.7" y="324.4" font-size="12" fill="#3d3a34">Bed room 2</text>
<text x="1122.7" y="338.4" font-size="10" fill="#8a8377">5.68 &#215; 5.70 m</text>
<rect x="1626.5" y="70.0" width="225.0" height="144.9" fill="#e8642e" fill-opacity="0.10" stroke="#e8642e" stroke-opacity="0.25" stroke-dasharray="4 3"/>
<rect x="1626.5" y="70.0" width="112.5" height="103.1" fill="#ffffff" fill-opacity="0.7" stroke="#5c564a" stroke-width="1.6"/>
<text x="1626.5" y="189.1" font-size="12" fill="#3d3a34">Kitchen</text>
<text x="1626.5" y="203.1" font-size="10" fill="#8a8377">2.46 &#215; 2.68 m</text>
<rect x="1876.7" y="70.0" width="241.1" height="390.3" fill="#e8642e" fill-opacity="0.10" stroke="#e8642e" stroke-opacity="0.25" stroke-dasharray="4 3"/>
<rect x="1876.7" y="70.0" width="120.5" height="282.5" fill="#ffffff" fill-opacity="0.7" stroke="#5c564a" stroke-width="1.6"/>
<text x="1876.7" y="368.5" font-size="12" fill="#3d3a34">Bedroom 3</text>
<text x="1876.7" y="382.5" font-size="10" fill="#8a8377">6.73 &#215; 2.87 m</text>
<rect x="2143.0" y="70.0" width="360.9" height="255.9" fill="#e8642e" fill-opacity="0.10" stroke="#e8642e" stroke-opacity="0.25" stroke-dasharray="4 3"/>
<rect x="2143.0" y="70.0" width="180.5" height="171.9" fill="#ffffff" fill-opacity="0.7" stroke="#5c564a" stroke-width="1.6"/>
<text x="2143.0" y="257.9" font-size="12" fill="#3d3a34">Bathroom 1</text>
<text x="2143.0" y="271.9" font-size="10" fill="#8a8377">4.09 &#215; 4.30 m</text>
<rect x="2529.1" y="70.0" width="299.2" height="226.6" fill="#e8642e" fill-opacity="0.10" stroke="#e8642e" stroke-opacity="0.25" stroke-dasharray="4 3"/>
<rect x="2529.1" y="70.0" width="149.6" height="121.3" fill="#ffffff" fill-opacity="0.7" stroke="#5c564a" stroke-width="1.6"/>
<text x="2529.1" y="207.3" font-size="12" fill="#3d3a34">Bathroom 2</text>
<text x="2529.1" y="221.3" font-size="10" fill="#8a8377">2.89 &#215; 3.56 m</text>
</svg>