<svg xmlns="http://www.w3.org/2000/svg" width="831" height="528" viewBox="0 0 831 528" font-family="ui-sans-serif,system-ui,sans-serif">
<rect width="831" height="528" fill="#fbfaf8"/>
<text x="56" y="28" font-size="15" font-weight="600" fill="#3d3a34">capture_20260831_031153_photo &#183; photo tier</text>
<text x="56" y="46" font-size="11" fill="#8a8377">Room sizes and adjacency are measured. Positions are solved so neighbours touch and none overlap &#8212; they are not surveyed.</text>
<line x1="436.5" y1="282.9" x2="478.1" y2="410.9" stroke="#e8642e" stroke-width="3.0" stroke-opacity="0.45"/>
<line x1="336.0" y1="376.2" x2="436.5" y2="282.9" stroke="#e8642e" stroke-width="3.0" stroke-opacity="0.45"/>
<line x1="538.2" y1="282.9" x2="436.5" y2="282.9" stroke="#e8642e" stroke-width="3.0" stroke-opacity="0.45"/>
<line x1="324.4" y1="174.4" x2="438.8" y2="159.3" stroke="#e8642e" stroke-width="3.0" stroke-opacity="0.45"/>
<line x1="324.4" y1="174.4" x2="436.5" y2="282.9" stroke="#e8642e" stroke-width="2.1" stroke-opacity="0.45"/>
<polygon points="647.8,209.2 775.6,209.2 775.6,356.6 647.8,356.6" fill="#ffffff" stroke="#5c564a" stroke-width="1.8" stroke-dasharray="5 4"/>
<text x="711.7" y="278.9" font-size="11.5" text-anchor="middle" fill="#3d3a34">Living room</text>
<text x="711.7" y="293.9" font-size="9.5" text-anchor="middle" fill="#8a8377">4.33 &#215; 3.76 m</text>
<text x="711.7" y="306.9" font-size="8.5" text-anchor="middle" fill="#e8642e">no link recovered</text>
<polygon points="365.4,229.7 507.6,229.7 507.6,336.1 365.4,336.1" fill="#ffffff" stroke="#5c564a" stroke-width="1.8"/>
<text x="436.5" y="278.9" font-size="11.5" text-anchor="middle" fill="#3d3a34">Hall</text>
<text x="436.5" y="293.9" font-size="9.5" text-anchor="middle" fill="#8a8377">3.13 &#215; 4.18 m</text>
<polygon points="56.0,207.7 217.7,207.7 217.7,333.3 56.0,333.3" fill="#ffffff" stroke="#5c564a" stroke-width="1.8" stroke-dasharray="5 4"/>
<text x="136.9" y="266.5" font-size="11.5" text-anchor="middle" fill="#3d3a34">Bed room 1</text>
<text x="136.9" y="281.5" font-size="9.5" text-anchor="middle" fill="#8a8377">3.70 &#215; 4.76 m</text>
<text x="136.9" y="294.5" font-size="8.5" text-anchor="middle" fill="#e8642e">no link recovered</text>
<polygon points="507.6,271.5 568.8,271.5 568.8,294.3 507.6,294.3" fill="#ffffff" stroke="#5c564a" stroke-width="1.8"/>
<text x="538.2" y="278.9" font-size="11.5" text-anchor="middle" fill="#3d3a34">Bed room 2</text>
<text x="538.2" y="293.9" font-size="9.5" text-anchor="middle" fill="#8a8377">0.67 &#215; 1.80 m</text>
<polygon points="414.6,373.2 541.6,373.2 541.6,448.6 414.6,448.6" fill="#ffffff" stroke="#5c564a" stroke-width="1.8"/>
<text x="478.1" y="406.9" font-size="11.5" text-anchor="middle" fill="#3d3a34">Kitchen</text>
<text x="478.1" y="421.9" font-size="9.5" text-anchor="middle" fill="#8a8377">2.22 &#215; 3.74 m</text>
<polygon points="274.9,336.9 397.1,336.9 397.1,415.6 274.9,415.6" fill="#ffffff" stroke="#5c564a" stroke-width="1.8"/>
<text x="336.0" y="372.2" font-size="11.5" text-anchor="middle" fill="#3d3a34">Bedroom 3</text>
<text x="336.0" y="387.2" font-size="9.5" text-anchor="middle" fill="#8a8377">2.32 &#215; 3.59 m</text>
<polygon points="268.0,119.2 380.9,119.2 380.9,229.6 268.0,229.6" fill="#ffffff" stroke="#5c564a" stroke-width="1.8"/>
<text x="324.4" y="170.4" font-size="11.5" text-anchor="middle" fill="#3d3a34">Bathroom 1</text>
<text x="324.4" y="185.4" font-size="9.5" text-anchor="middle" fill="#8a8377">3.24 &#215; 3.32 m</text>
<polygon points="382.5,108.0 495.1,108.0 495.1,210.5 382.5,210.5" fill="#ffffff" stroke="#5c564a" stroke-width="1.8"/>
<text x="438.8" y="155.3" font-size="11.5" text-anchor="middle" fill="#3d3a34">Bathroom 2</text>
<text x="438.8" y="170.3" font-size="9.5" text-anchor="middle" fill="#8a8377">3.02 &#215; 3.31 m</text>
<text x="56" y="510" font-size="10.5" fill="#8a8377">8 rooms &#183; footprint 85.5 m&#178; &#183; overlap 0.0 m&#178; &#183; dashed outline = no adjacency recovered</text>
</svg>